HIERARCHY
ROOT SpineBase
{
  OFFSET 0.000000 0.000000 0.000000
  CHANNELS 6 Xposition Yposition Zposition Zrotation Xrotation Yrotation
  JOINT SpineMid
  {
    OFFSET 0.000000 30.014935 0.000000
    CHANNELS 3 Zrotation Xrotation Yrotation
    JOINT SpineShoulder
    {
      OFFSET -0.146807 22.299726 -0.967277
      CHANNELS 3 Zrotation Xrotation Yrotation
      JOINT Neck
      {
        OFFSET -0.032789 7.391873 -0.678472
        CHANNELS 3 Zrotation Xrotation Yrotation
        JOINT Head
        {
          OFFSET -4.313421 13.345545 -0.195974
          CHANNELS 3 Zrotation Xrotation Yrotation
          End Site
          {
            OFFSET 0 0 0
          }
        }
      }
      JOINT ShoulderLeft
      {
        OFFSET -15.915912 -5.292796 4.733664
        CHANNELS 3 Zrotation Xrotation Yrotation
        JOINT ElbowLeft
        {
          OFFSET -1.896481 -26.574247 0.891605
          CHANNELS 3 Zrotation Xrotation Yrotation
          JOINT WristLeft
          {
            OFFSET 0.904776 -21.867786 -1.600139
            CHANNELS 3 Zrotation Xrotation Yrotation
            JOINT HandLeft
            {
              OFFSET -0.614909 -3.769200 1.245499
              CHANNELS 3 Zrotation Xrotation Yrotation
              JOINT HandTipLeft
              {
                OFFSET 0.630319 -5.271503 0.607362
                CHANNELS 3 Zrotation Xrotation Yrotation
                End Site
                {
                  OFFSET 0 0 0
                }
              }
              JOINT ThumbLeft
              {
                OFFSET -2.550379 0.201182 -2.509550
                CHANNELS 3 Zrotation Xrotation Yrotation
                End Site
                {
                  OFFSET 0 0 0
                }
              }
            }
          }
        }
      }
      JOINT ShoulderRight
      {
        OFFSET 14.669025 -2.873338 -7.772247
        CHANNELS 3 Zrotation Xrotation Yrotation
        JOINT ElbowRight
        {
          OFFSET 5.154841 -25.539546 -2.367083
          CHANNELS 3 Zrotation Xrotation Yrotation
          JOINT WristRight
          {
            OFFSET -0.300007 -20.240438 -6.456645
            CHANNELS 3 Zrotation Xrotation Yrotation
            JOINT HandRight
            {
              OFFSET 0.219245 -5.282586 -2.767020
              CHANNELS 3 Zrotation Xrotation Yrotation
              JOINT HandTipRight
              {
                OFFSET -0.192039 -4.917136 -3.868607
                CHANNELS 3 Zrotation Xrotation Yrotation
                End Site
                {
                  OFFSET 0 0 0
                }
              }
              JOINT ThumbRight
              {
                OFFSET -3.819122 1.081154 0.830717
                CHANNELS 3 Zrotation Xrotation Yrotation
                End Site
                {
                  OFFSET 0 0 0
                }
              }
            }
          }
        }
      }
    }
  }
  JOINT HipLeft
  {
    OFFSET -6.446453 0.618367 -0.908117
    CHANNELS 3 Zrotation Xrotation Yrotation
    JOINT KneeLeft
    {
      OFFSET 5.067688 -27.831034 5.127844
      CHANNELS 3 Zrotation Xrotation Yrotation
      JOINT AnkleLeft
      {
        OFFSET 4.378065 -31.804604 5.872599
        CHANNELS 3 Zrotation Xrotation Yrotation
        JOINT FootLeft
        {
          OFFSET 6.197176 -5.586590 -5.611363
          CHANNELS 3 Zrotation Xrotation Yrotation
          End Site
          {
            OFFSET 0 0 0
          }
        }
      }
    }
  }
  JOINT HipRight
  {
    OFFSET 7.082914 1.137508 -5.942902
    CHANNELS 3 Zrotation Xrotation Yrotation
    JOINT KneeRight
    {
      OFFSET 8.091024 -28.780903 3.718547
      CHANNELS 3 Zrotation Xrotation Yrotation
      JOINT AnkleRight
      {
        OFFSET 3.112621 -31.445461 6.292441
        CHANNELS 3 Zrotation Xrotation Yrotation
        JOINT FootRight
        {
          OFFSET -3.324379 -7.419137 -3.959904
          CHANNELS 3 Zrotation Xrotation Yrotation
          End Site
          {
            OFFSET 0 0 0
          }
        }
      }
    }
  }
}
MOTION
Frames: 6
Frame Time: 0.033333
-33.950628 66.988845 341.493673 -0.000000 0.000000 20.412123 -0.000000 0.000000 -20.412123 -0.000000 0.000000 0.000000 -0.000000 0.000000 0.000000 0.000000 0.000000 0.000000 -0.000000 0.000000 0.000000 -0.000000 0.000000 0.000000 -0.000000 0.000000 0.000000 -0.000000 0.000000 0.000000 0.000000 0.000000 0.000000 0.000000 0.000000 0.000000 -0.000000 0.000000 0.000000 -0.000000 0.000000 0.000000 -0.000000 0.000000 0.000000 -0.000000 0.000000 0.000000 0.000000 0.000000 0.000000 0.000000 0.000000 0.000000 -0.000000 0.000000 -20.412123 -0.000000 0.000000 0.000000 -0.000000 0.000000 0.000000 0.000000 0.000000 0.000000 -0.000000 0.000000 -20.412123 -0.000000 0.000000 0.000000 -0.000000 0.000000 0.000000 0.000000 0.000000 0.000000
-33.890445 66.890195 341.580807 0.100260 -0.139713 19.689359 -0.047326 0.165324 -19.689169 -0.000000 0.000000 0.000000 -0.000000 0.000000 0.000000 0.000000 0.000000 0.000000 -0.109066 -1.920756 0.131518 -0.542629 1.089457 -0.104585 2.696386 4.835232 -0.099790 -1.226068 -2.657549 0.211161 0.000000 0.000000 0.000000 0.000000 0.000000 0.000000 -0.000000 0.000000 0.000000 -0.000000 0.000000 0.000000 1.276009 0.862247 -0.639395 1.491211 -3.764723 -1.339310 0.000000 0.000000 0.000000 0.000000 0.000000 0.000000 -0.047326 0.165324 -19.689169 -0.000000 0.000000 0.000000 -0.000000 0.000000 0.000000 0.000000 0.000000 0.000000 -0.047326 0.165324 -19.689169 -0.000000 0.000000 0.000000 -1.239554 -0.260814 0.772853 0.000000 0.000000 0.000000
-33.843694 66.812918 341.657266 0.184333 -0.265233 19.095140 -0.087424 0.310941 -19.094476 -0.000000 0.000000 0.000000 -0.000000 0.000000 0.000000 0.000000 0.000000 0.000000 -0.211542 -3.548297 0.239376 -0.816874 2.499303 -0.165436 5.381258 9.172814 -0.334905 -2.865306 -5.357151 0.268461 0.000000 0.000000 0.000000 0.000000 0.000000 0.000000 0.500294 -0.873397 -0.218805 0.813259 0.555478 -0.205335 0.687777 1.983215 -0.600901 2.897132 -6.976715 -2.366933 0.000000 0.000000 0.000000 0.000000 0.000000 0.000000 -0.087424 0.310941 -19.094476 -0.000000 0.000000 0.000000 -0.990892 0.002043 1.007212 0.000000 0.000000 0.000000 0.522263 1.406671 -18.728016 -0.225674 -1.233422 -0.378028 -2.291247 -0.522168 1.437172 0.000000 0.000000 0.000000
-33.810373 66.757014 341.723052 0.252438 -0.376835 18.630973 -0.118826 0.437732 -18.629689 -0.000000 0.000000 0.000000 -0.000000 0.000000 0.000000 0.000000 0.000000 0.000000 -0.309070 -4.878399 0.324297 -0.825272 4.223278 -0.202220 8.082793 13.038605 -0.668401 -4.932329 -8.129479 0.110708 0.000000 0.000000 0.000000 0.000000 0.000000 0.000000 0.693429 -1.228410 -0.304715 1.069735 0.812915 -0.270207 0.382384 2.807681 -0.524559 4.294084 -9.646240 -3.216628 0.000000 0.000000 0.000000 0.000000 0.000000 0.000000 -0.118826 0.437732 -18.629689 -0.000000 0.000000 0.000000 -1.245807 0.058346 1.332062 0.000000 0.000000 0.000000 0.755737 2.017264 -18.106596 -0.451761 -2.641159 -0.657832 -3.044694 0.085980 2.142684 0.000000 0.000000 0.000000
-33.790484 66.722482 341.778165 0.304744 -0.474750 18.298089 -0.140291 0.546419 -18.296157 -0.000000 0.000000 0.000000 -0.000000 0.000000 0.000000 0.000000 0.000000 0.000000 -0.402993 -5.909208 0.386997 -0.563432 6.273237 -0.235270 10.802561 16.433958 -1.056307 -7.443188 -10.984265 -0.328334 0.000000 0.000000 0.000000 0.000000 0.000000 0.000000 0.850902 -1.532079 -0.376639 1.221738 1.061249 -0.304890 -0.401805 3.503575 -0.154781 5.736001 -11.798550 -3.991508 0.000000 0.000000 0.000000 0.000000 0.000000 0.000000 -0.140291 0.546419 -18.296157 -0.000000 0.000000 0.000000 -1.341325 0.154508 1.538339 0.000000 0.000000 0.000000 0.978851 2.562327 -17.633169 -0.579077 -3.344274 -0.837443 -3.693479 0.058528 2.627235 0.000000 0.000000 0.000000
-33.784025 66.709323 341.822604 0.341369 -0.559165 18.097496 -0.150798 0.637538 -18.094991 -0.000000 0.000000 0.000000 -0.000000 0.000000 0.000000 0.000000 0.000000 0.000000 -0.494341 -6.640165 0.428178 -0.018670 8.677151 -0.286772 13.509624 19.334957 -1.438787 -10.412774 -13.905403 -1.117946 0.000000 0.000000 0.000000 0.000000 0.000000 0.000000 0.974003 -1.786198 -0.435523 1.266968 1.302888 -0.306468 -1.683137 4.049026 0.526311 7.254185 -13.458886 -4.762224 0.000000 0.000000 0.000000 0.000000 0.000000 0.000000 -0.150798 0.637538 -18.094991 -0.000000 0.000000 0.000000 -1.277971 0.291522 1.626182 0.000000 0.000000 0.000000 1.196618 3.039224 -17.308334 -0.693356 -3.955952 -0.995552 -4.151513 0.012595 2.987397 0.000000 0.000000 0.000000
